<?xml version="1.0" standalone="no"?>
<!DOCTYPE svg PUBLIC "-//W3C//DTD SVG 20010904//EN"
 "http://www.w3.org/TR/2001/REC-SVG-20010904/DTD/svg10.dtd">
<svg version="1.0" xmlns="http://www.w3.org/2000/svg"
 width="1024.000000pt" height="1024.000000pt" viewBox="0 0 1024.000000 1024.000000"
 preserveAspectRatio="xMidYMid meet">

<g transform="translate(0.000000,1024.000000) scale(0.100000,-0.100000)"
fill="#000000" stroke="none">
<path d="M0 5120 l0 -5120 5120 0 5120 0 0 5120 0 5120 -5120 0 -5120 0 0
-5120z m5415 3075 c354 -53 617 -152 900 -336 246 -160 460 -376 615 -622 120
-192 232 -445 278 -632 54 -215 57 -246 57 -540 0 -293 -5 -341 -51 -526 -73
-296 -206 -568 -391 -807 -91 -117 -250 -281 -353 -365 -250 -203 -572 -357
-915 -438 -121 -28 -144 -37 -170 -64 -262 -269 -2367 -2382 -2387 -2396 l-28
-21 3 2434 c3 2417 3 2434 24 2543 47 248 105 423 203 613 118 227 224 373
395 545 260 261 610 464 956 556 74 20 268 56 339 64 101 11 433 6 525 -8z"/>
<path d="M4524 6791 c-55 -32 -96 -86 -113 -147 -7 -26 -11 -246 -11 -665 l0
-625 26 -52 c46 -93 139 -143 237 -128 53 8 105 34 392 195 110 62 227 127
260 145 33 18 121 67 195 108 74 42 168 93 207 115 164 88 211 140 220 241 5
49 2 69 -17 106 -29 62 -80 101 -240 186 -74 40 -153 82 -175 95 -22 12 -96
52 -164 89 -68 38 -221 123 -340 190 -276 156 -300 167 -369 173 -50 4 -63 0
-108 -26z"/>
</g>
</svg>
